<svg width="512" height="512" xmlns="http://www.w3.org/2000/svg">

 <g>
  <title>background</title>
  <rect fill="none" id="canvas_background" height="402" width="582" y="-1" x="-1"/>
 </g>
 <g>
  <title>Layer 1</title>
  <path fill="#fffff2" id="svg_2" d="m92.343,429.803l327.313,0c14.063,0 25.504,-11.441 25.504,-25.504l0,-152.917l0,-68.958c0,-14.063 -11.441,-25.503 -25.504,-25.503l-52.543,0l0,-49.221c0,-14.063 -11.44,-25.503 -25.503,-25.503l-171.22,0c-14.063,0 -25.503,11.441 -25.503,25.503l0,49.22l-52.544,0c-14.063,0 -25.503,11.441 -25.503,25.503l0,68.958l0,63.983c0,4.971 4.029,9 9,9s9,-4.029 9,-9l0,-47.111c0.461,0.279 0.939,0.551 1.406,0.827c1.066,0.633 2.138,1.262 3.228,1.881c0.778,0.443 1.569,0.879 2.36,1.315c0.773,0.427 1.551,0.85 2.336,1.27c0.926,0.497 1.857,0.991 2.801,1.479c0.537,0.277 1.084,0.55 1.626,0.825c3.015,1.529 6.096,3.023 9.271,4.465l0,64.389c0,4.971 4.029,9 9,9l48.594,0c4.971,0 9,-4.029 9,-9l0,-43.414c12.597,2.546 25.601,4.492 38.883,5.818c0.046,0.005 0.091,0.009 0.137,0.013c4.201,0.418 8.421,0.793 12.672,1.086c0.001,0 0.001,0 0.002,0c0.912,0.063 1.83,0.108 2.744,0.166c1.191,0.075 2.384,0.15 3.579,0.216c0.932,0.051 1.862,0.096 2.795,0.14c1.479,0.072 2.961,0.136 4.445,0.192c0.797,0.029 1.591,0.06 2.387,0.085c1.662,0.054 3.326,0.096 4.994,0.13c0.657,0.014 1.315,0.031 1.973,0.042c2.305,0.037 4.613,0.061 6.928,0.061s4.623,-0.023 6.928,-0.061c0.659,-0.011 1.319,-0.028 1.98,-0.042c1.662,-0.035 3.323,-0.076 4.98,-0.13c0.799,-0.025 1.598,-0.056 2.396,-0.086c1.482,-0.056 2.962,-0.12 4.439,-0.191c0.934,-0.044 1.865,-0.089 2.798,-0.14c1.191,-0.065 2.379,-0.141 3.566,-0.216c0.918,-0.057 1.84,-0.103 2.756,-0.166c0.001,0 0.001,0 0.002,0c4.263,-0.294 8.494,-0.67 12.707,-1.089c0.028,-0.003 0.056,-0.006 0.084,-0.009c13.288,-1.325 26.298,-3.271 38.9,-5.819l0,43.415c0,4.971 4.029,9 9,9l48.594,0c4.971,0 9,-4.029 9,-9l0,-64.389c3.193,-1.449 6.29,-2.952 9.321,-4.49c0.521,-0.265 1.045,-0.525 1.562,-0.793c0.954,-0.493 1.895,-0.992 2.831,-1.494c0.774,-0.415 1.542,-0.833 2.305,-1.253c0.799,-0.44 1.598,-0.881 2.383,-1.328c1.084,-0.616 2.15,-1.242 3.211,-1.871c0.47,-0.278 0.951,-0.552 1.416,-0.833l0,136.045c0,4.138 -3.366,7.504 -7.504,7.504l-327.313,0c-4.137,0 -7.503,-3.366 -7.503,-7.504l0,-43.092c0,-4.971 -4.029,-9 -9,-9s-9,4.029 -9,9l0,43.092c0,14.062 11.44,25.504 25.503,25.504zm70.544,-322.103c0,-4.137 3.366,-7.503 7.503,-7.503l171.22,0c4.137,0 7.503,3.366 7.503,7.503l0,49.22l-186.226,0l0,-49.22zm-70.544,67.22l61.544,0l204.227,0l61.543,0c4.138,0 7.504,3.366 7.504,7.503l0,64.365c-0.018,0.013 -0.035,0.026 -0.053,0.039c-10.178,7.138 -22.098,13.635 -35.502,19.344c-8.975,3.822 -18.533,7.253 -28.569,10.259c0,0 0,0 -0.001,0c-1.897,0.568 -3.815,1.119 -5.746,1.656c-0.189,0.053 -0.377,0.106 -0.566,0.158c-1.737,0.48 -3.49,0.944 -5.253,1.399c-0.346,0.089 -0.688,0.181 -1.035,0.269c-1.618,0.412 -3.251,0.809 -4.889,1.199c-0.468,0.111 -0.931,0.228 -1.4,0.337c-1.28,0.3 -2.572,0.584 -3.863,0.87c-0.75,0.166 -1.495,0.338 -2.249,0.5c-1.005,0.215 -2.02,0.418 -3.03,0.625c-1.04,0.213 -2.076,0.432 -3.124,0.637c-0.627,0.123 -1.26,0.235 -1.889,0.355c-9.197,1.748 -18.648,3.178 -28.301,4.264c-0.219,0.024 -0.436,0.053 -0.654,0.077c-1.262,0.14 -2.533,0.263 -3.801,0.391c-0.904,0.091 -1.805,0.189 -2.712,0.274c-0.099,0.01 -0.198,0.017 -0.298,0.026l0,-56.389c0,-4.971 -4.029,-9 -9,-9l-58.449,0c-4.971,0 -9,4.029 -9,9l0,56.389c-0.098,-0.01 -0.197,-0.017 -0.296,-0.026c-0.915,-0.086 -1.824,-0.186 -2.737,-0.277c-1.26,-0.127 -2.522,-0.249 -3.775,-0.388c-0.229,-0.025 -0.457,-0.056 -0.686,-0.081c-8.145,-0.916 -16.151,-2.07 -23.979,-3.46c-0.002,-0.001 -0.006,-0.001 -0.009,-0.002c-1.418,-0.252 -2.823,-0.521 -4.229,-0.788c-0.649,-0.123 -1.303,-0.239 -1.95,-0.366c-1.03,-0.201 -2.048,-0.417 -3.07,-0.626c-1.029,-0.211 -2.063,-0.418 -3.086,-0.637c-0.736,-0.158 -1.464,-0.326 -2.196,-0.488c-1.31,-0.29 -2.619,-0.578 -3.918,-0.883c-0.454,-0.105 -0.9,-0.218 -1.353,-0.324c-1.655,-0.395 -3.305,-0.796 -4.939,-1.212c-0.333,-0.085 -0.662,-0.173 -0.994,-0.258c-1.777,-0.459 -3.545,-0.927 -5.296,-1.411c-0.177,-0.049 -0.352,-0.099 -0.528,-0.147c-12.151,-3.383 -23.66,-7.374 -34.339,-11.922c-13.404,-5.709 -25.326,-12.207 -35.504,-19.346c-0.018,-0.012 -0.033,-0.025 -0.051,-0.037l0,-64.365c-0.002,-4.137 3.364,-7.503 7.501,-7.503zm183.833,115.825c-0.938,0.046 -1.874,0.081 -2.812,0.12c-1.022,0.043 -2.046,0.085 -3.071,0.12c-0.913,0.032 -1.825,0.059 -2.737,0.084c-1.129,0.031 -2.259,0.058 -3.39,0.079c-0.806,0.017 -1.611,0.033 -2.417,0.045c-1.632,0.022 -3.266,0.035 -4.903,0.038c-0.563,0.001 -1.128,0.001 -1.691,0c-1.638,-0.003 -3.271,-0.016 -4.903,-0.038c-0.806,-0.012 -1.611,-0.028 -2.417,-0.045c-1.131,-0.021 -2.261,-0.048 -3.389,-0.079c-0.913,-0.025 -1.826,-0.052 -2.738,-0.084c-1.025,-0.035 -2.047,-0.077 -3.069,-0.12c-0.938,-0.039 -1.876,-0.074 -2.814,-0.12c-0.016,-0.001 -0.032,-0.002 -0.048,-0.003l0,-48.663l40.449,0l0,48.663c-0.018,0.001 -0.034,0.002 -0.05,0.003zm-119.714,44.96l-30.594,0l0,-48.006c0.479,0.177 0.977,0.341 1.459,0.516c1.671,0.606 3.352,1.204 5.053,1.786c0.808,0.276 1.623,0.546 2.437,0.816c1.533,0.51 3.075,1.012 4.631,1.502c0.859,0.271 1.721,0.54 2.587,0.805c1.602,0.49 3.217,0.967 4.841,1.436c0.798,0.23 1.591,0.465 2.394,0.69c2.091,0.587 4.198,1.154 6.323,1.706c0.292,0.075 0.577,0.159 0.87,0.234l0,38.515l-0.001,0zm229.67,0l-30.594,0l0,-38.515c0.293,-0.075 0.578,-0.159 0.87,-0.234c2.125,-0.552 4.232,-1.119 6.323,-1.706c0.803,-0.226 1.596,-0.46 2.394,-0.69c1.624,-0.469 3.239,-0.945 4.841,-1.436c0.866,-0.265 1.728,-0.534 2.587,-0.805c1.556,-0.49 3.098,-0.992 4.631,-1.502c0.813,-0.271 1.629,-0.54 2.437,-0.816c1.701,-0.582 3.382,-1.18 5.053,-1.786c0.482,-0.175 0.979,-0.339 1.459,-0.516l0,48.006l-0.001,0z"/>
 </g>
</svg>