<svg width="32" height="32" xmlns="http://www.w3.org/2000/svg">
 <title/>

 <g>
  <title>background</title>
  <rect fill="none" id="canvas_background" height="402" width="582" y="-1" x="-1"/>
 </g>
 <g>
  <title>Layer 1</title>
  <path fill="#fffff2" id="Oval 278" d="m16,28c6.62742,0 12,-5.37258 12,-12c0,-6.62742 -5.37258,-12 -12,-12c-6.62742,0 -12,5.37258 -12,12c0,6.62742 5.37258,12 12,12zm0,2c-7.73199,0 -14,-6.26801 -14,-14c0,-7.73199 6.26801,-14 14,-14c7.73199,0 14,6.26801 14,14c0,7.73199 -6.26801,14 -14,14zm-7.77817,-6.22183c0,0 3.18198,-8.83883 4.94974,-10.6066c1.76777,-1.76776 10.6066,-4.94974 10.6066,-4.94974c0,0 -3.18198,8.83883 -4.94974,10.6066c-1.76777,1.76776 -10.6066,4.94974 -10.6066,4.94974zm9.19238,-6.36396l-2.82842,-2.82842c-0.70711,-0.70711 -3.53554,6.36396 -3.53554,6.36396c0,0 7.07107,-2.82843 6.36396,-3.53554zm0,0"/>
 </g>
</svg>