<?xml version="1.0" encoding="UTF-8" standalone="no"?>
<!DOCTYPE svg PUBLIC "-//W3C//DTD SVG 1.1//EN" "http://www.w3.org/Graphics/SVG/1.1/DTD/svg11.dtd">
<svg version="1.1" xmlns="http://www.w3.org/2000/svg" xmlns:xlink="http://www.w3.org/1999/xlink" preserveAspectRatio="xMidYMid meet" viewBox="0 0 640 640" width="640" height="640"><defs><path d="M357.88 67.86L464.88 174.87L357.88 281.87L250.87 174.87L357.88 67.86Z" id="b1ACpuCOF"></path><path d="M412.64 203.51C412.64 233.74 388.1 258.28 357.88 258.28C327.65 258.28 303.11 233.74 303.11 203.51C303.11 173.29 327.65 148.75 357.88 148.75C388.1 148.75 412.64 173.29 412.64 203.51Z" id="a29ZbScPRh"></path><path d="M357.88 67.75L435.32 145.2L357.88 222.64L280.43 145.2L357.88 67.75Z" id="i1f9NZ8sod"></path><path d="M412.64 145.2C412.64 175.42 388.1 199.96 357.88 199.96C327.65 199.96 303.11 175.42 303.11 145.2C303.11 114.97 327.65 90.43 357.88 90.43C388.1 90.43 412.64 114.97 412.64 145.2Z" id="caQuaASeQa"></path></defs><g><g><g><use xlink:href="#b1ACpuCOF" opacity="1" fill="#ffffff" fill-opacity="0"></use><g><use xlink:href="#b1ACpuCOF" opacity="1" fill-opacity="0" stroke="#000000" stroke-width="1" stroke-opacity="1"></use></g></g><g><use xlink:href="#a29ZbScPRh" opacity="1" fill="#ffffff" fill-opacity="0"></use><g><use xlink:href="#a29ZbScPRh" opacity="1" fill-opacity="0" stroke="#000000" stroke-width="1" stroke-opacity="1"></use></g></g><g><use xlink:href="#i1f9NZ8sod" opacity="1" fill="#ffffff" fill-opacity="0"></use><g><use xlink:href="#i1f9NZ8sod" opacity="1" fill-opacity="0" stroke="#000000" stroke-width="1" stroke-opacity="1"></use></g></g><g><use xlink:href="#caQuaASeQa" opacity="1" fill="#ffffff" fill-opacity="0"></use><g><use xlink:href="#caQuaASeQa" opacity="1" fill-opacity="0" stroke="#000000" stroke-width="1" stroke-opacity="1"></use></g></g></g></g></svg>