<svg width="32" height="32" xmlns="http://www.w3.org/2000/svg">

 <g>
  <title>background</title>
  <rect fill="none" id="canvas_background" height="402" width="582" y="-1" x="-1"/>
 </g>
 <g>
  <title>Layer 1</title>
  <path id="svg_1" fill="#fffff2" d="m15,30l-13,0l0,-28l13,0c0.552,0 1,-0.448 1,-1s-0.448,-1 -1,-1l-14,0c-0.552,0 -1,0.448 -1,1l0,30c0,0.552 0.448,1 1,1l14,0c0.552,0 1,-0.448 1,-1s-0.448,-1 -1,-1z"/>
  <path id="svg_2" fill="#fffff2" d="m31.71,15.302l-6.9,-6.999c-0.391,-0.395 -1.024,-0.394 -1.414,0c-0.391,0.394 -0.391,1.034 0,1.428l5.2,5.275l-20.593,0c-0.552,0 -1,0.452 -1,1.01c0,0.558 0.448,1.01 1,1.01l20.593,0l-5.2,5.275c-0.391,0.395 -0.391,1.034 0,1.428c0.391,0.395 1.024,0.395 1.414,0l6.899,-6.999c0.386,-0.389 0.39,-1.04 0.001,-1.428z"/>
 </g>
</svg>