<svg width="300" height="300" xmlns="http://www.w3.org/2000/svg">
 <title/>

 <g>
  <title>background</title>
  <rect fill="none" id="canvas_background" height="402" width="582" y="-1" x="-1"/>
 </g>
 <g>
  <title>Layer 1</title>
  <path fill="#fffff2" stroke="null" transform="rotate(117.59092712402344 166.2451629638672,144.06881713867188) " id="svg_4" d="m167.773355,212.439576l-35.543765,-68.495207l0,1.517627l35.543765,-69.704243l-1.79469,0l34.299955,70.316345l0,-1.517618l-34.299955,67.888158c-0.7934,1.573268 1.008219,3.090886 1.79469,1.517618l34.299955,-67.888158a1.00475,1.46703 0 0 0 0,-1.517618l-34.299955,-70.316345a1.05672,1.542917 0 0 0 -1.79469,0l-35.561076,69.704234a1.00128,1.461978 0 0 0 0,1.517627l35.561076,68.495197c0.79687,1.553031 2.60541,0.040474 1.79469,-1.517618z"/>
  <path fill="#fffff2" stroke="null" transform="rotate(-116.98271179199219 119.20684051513673,144.72215270996094) " id="svg_5" d="m120.735026,213.092886l-35.54376,-68.49521l0,1.51763l35.54376,-69.70424l-1.79469,0l34.29996,70.31634l0,-1.51762l-34.29996,67.88816c-0.7934,1.57327 1.00822,3.09089 1.79469,1.51762l34.29996,-67.88816a1.00475,1.46703 0 0 0 0,-1.51762l-34.29996,-70.31634a1.05672,1.54292 0 0 0 -1.79469,0l-35.56107,69.70423a1.00128,1.46198 0 0 0 0,1.51763l35.56107,68.4952c0.79687,1.55303 2.60541,0.04047 1.79469,-1.51762z"/>
 </g>
</svg>