<svg width="512" height="512" xmlns="http://www.w3.org/2000/svg">

 <g>
  <title>background</title>
  <rect fill="none" id="canvas_background" height="402" width="582" y="-1" x="-1"/>
 </g>
 <g>
  <title>Layer 1</title>
  <path fill="#a2a2a2" id="svg_1" d="m432,64l-150.4,0c-10.3,0 -19.3,4.6 -25.6,11.7l0,0l0,0c-6.2,-7.2 -15.3,-11.7 -25.6,-11.7l-150.4,0c-18.8,0 -33,13.3 -33,32l0,286.1c0,18.8 14.2,33.9 33,33.9c0,0 129.5,0 143.3,0c13.8,0 24.7,4.2 24.7,19.4c0,9.1 0,12.6 0,12.6l8,0l8,0c0,0 0,-3.4 0,-12.6c0,-15.3 10.9,-19.4 24.7,-19.4s143.3,0 143.3,0c18.8,0 33,-15.1 33,-33.9l0,-286.1c0,-18.7 -14.2,-32 -33,-32zm-184,347.1c-4.7,-7.8 -13.5,-11.1 -23.8,-11.1l-144.2,0c-9.4,0 -16,-8.5 -16,-17.9l0,-286.1c0,-9.4 6.6,-16 16,-16c0,0 130.6,0 143.3,0c12.8,0 24.7,12.8 24.7,22.2l0,308.9zm72,-331.1c18.8,0 43,0 64,0l0,100.4l-22.9,-14.5l-9.1,-6.4l-9.1,6.4l-22.9,14.5l0,-100.4zm128,302.1c0,9.4 -6.6,17.9 -16,17.9l-144.2,0c-10.3,0 -19.1,2.3 -23.8,11.1l0,-308.9c0,-9.4 11.9,-22.2 24.7,-22.2c2.2,0 7.7,0 15.3,0l0,131l48,-32l48,32l0,-131c18.6,0 32,0 32,0c9.4,0 16,6.7 16,16l0,286.1z"/>
 </g>
</svg>