<svg width="48" height="48" xmlns="http://www.w3.org/2000/svg">

 <g>
  <title>background</title>
  <rect fill="none" id="canvas_background" height="402" width="582" y="-1" x="-1"/>
 </g>
 <g>
  <title>Layer 1</title>
  <path fill="#fffff2" id="svg_3" d="m42,48l-14,0l0,-13l-8,0l0,13l-14,0l0,-21c0,-0.552 0.447,-1 1,-1s1,0.448 1,1l0,19l10,0l0,-13l12,0l0,13l10,0l0,-18c0,-0.552 0.447,-1 1,-1s1,0.448 1,1l0,20z"/>
  <path fill="#fffff2" id="svg_5" d="m47,27c-0.249,0 -0.497,-0.092 -0.691,-0.277l-22.309,-21.339l-22.309,21.339c-0.399,0.381 -1.032,0.368 -1.414,-0.031c-0.382,-0.399 -0.367,-1.032 0.031,-1.414l23.692,-22.662l23.691,22.661c0.398,0.382 0.413,1.015 0.031,1.414c-0.196,0.205 -0.458,0.309 -0.722,0.309z"/>
  <path fill="#fffff2" id="svg_7" d="m39,15c-0.553,0 -1,-0.448 -1,-1l0,-6l-6,0c-0.553,0 -1,-0.448 -1,-1s0.447,-1 1,-1l8,0l0,8c0,0.552 -0.447,1 -1,1z"/>
 </g>
</svg>