<svg width="32" height="32" xmlns="http://www.w3.org/2000/svg">

 <g>
  <title>background</title>
  <rect fill="none" id="canvas_background" height="402" width="582" y="-1" x="-1"/>
 </g>
 <g>
  <title>Layer 1</title>
  <path stroke-miterlimit="10" stroke-linejoin="round" stroke-linecap="round" stroke-width="2" stroke="#fffff2" fill="none" id="svg_1" d="m17.89001,15.90997c-0.62,1.04999 -1.40002,1.98999 -2.29004,2.70001c-0.03998,0.03003 -0.07996,0.06 -0.12,0.09003c-1.03997,0.81 -2.21996,1.29999 -3.47997,1.29999s-2.44,-0.48999 -3.47998,-1.29999c-0.04004,-0.03003 -0.08002,-0.06 -0.12,-0.09003c-2.33001,-1.86999 -3.90002,-5.28002 -3.90002,-8.10998c0,-4.14001 3.35999,-7.5 7.5,-7.5c0.69,0 1.35999,0.08997 2,0.27997l0,9.72003l3.57001,0c-0.5,1.14996 -1.41998,2.07001 -2.57001,2.57996c0.60999,0.27002 1.28998,0.42004 2,0.42004c0.29999,0 0.59998,-0.03003 0.89001,-0.09003z" class="st0"/>
  <path stroke-miterlimit="10" stroke-linejoin="round" stroke-linecap="round" stroke-width="2" stroke="#fffff2" fill="none" id="svg_2" d="m23,29.076189l0,2l-22,0l0,-2c0,-4.82001 3.09003,-8.91003 7.40002,-10.39001c0.03998,0.03003 0.07996,0.06 0.12,0.09003c1.03998,0.80999 2.21997,1.29998 3.47998,1.29998s2.44,-0.48999 3.47998,-1.29999c0.04004,-0.03003 0.08002,-0.06 0.12,-0.09003c4.30999,1.47999 7.40002,5.57001 7.40002,10.39002z" class="st0"/>
  <path stroke-miterlimit="10" stroke-linejoin="round" stroke-linecap="round" stroke-width="2" stroke="#fffff2" fill="none" id="svg_3" d="m31,1.076189l0,12l-9.41998,0c-0.66003,1.5 -2.03003,2.62 -3.69,2.90997c-0.29004,0.06 -0.59003,0.09003 -0.89002,0.09003c-0.71002,0 -1.39001,-0.15002 -2,-0.42004c1.15002,-0.50995 2.07001,-1.42999 2.57001,-2.57996l-3.57001,0l0,-12l17,0z" class="st0"/>
 </g>
</svg>