<svg width="48" height="48" xmlns="http://www.w3.org/2000/svg">

 <g>
  <title>background</title>
  <rect fill="none" id="canvas_background" height="402" width="582" y="-1" x="-1"/>
 </g>
 <g>
  <title>Layer 1</title>
  <path fill="#fffff2" id="svg_3" d="m26,48l-4,0c-1.654,0 -3,-1.346 -3,-3l0,-3.724c-1.28,-0.37 -2.512,-0.881 -3.681,-1.527l-2.634,2.635c-1.134,1.134 -3.109,1.132 -4.243,0l-2.829,-2.828c-0.567,-0.566 -0.879,-1.32 -0.879,-2.121s0.312,-1.555 0.879,-2.121l2.635,-2.636c-0.645,-1.166 -1.156,-2.398 -1.525,-3.679l-3.723,0c-1.654,0 -3,-1.346 -3,-3l0,-4c0,-0.802 0.312,-1.555 0.878,-2.121c0.567,-0.566 1.32,-0.879 2.122,-0.879l3.724,0c0.37,-1.278 0.88,-2.511 1.526,-3.679l-2.634,-2.635c-1.17,-1.17 -1.17,-3.072 0,-4.242l2.828,-2.829c1.133,-1.132 3.109,-1.134 4.243,0l2.635,2.635c1.168,-0.645 2.4,-1.156 3.678,-1.525l0,-3.724c0,-1.654 1.346,-3 3,-3l4,0c1.654,0 3,1.346 3,3l0,3.724c1.28,0.37 2.512,0.881 3.678,1.525l2.635,-2.635c1.134,-1.132 3.109,-1.134 4.243,0l2.829,2.828c0.567,0.566 0.879,1.32 0.879,2.121s-0.312,1.555 -0.879,2.121l-2.634,2.635c0.646,1.168 1.157,2.4 1.526,3.68l3.723,0c1.654,0 3,1.346 3,3l0,4c0,0.802 -0.312,1.555 -0.878,2.121s-1.32,0.879 -2.122,0.879l-3.724,0c-0.37,1.28 -0.881,2.513 -1.526,3.68l2.634,2.635c1.17,1.17 1.17,3.072 0,4.242l-2.828,2.829c-1.134,1.133 -3.109,1.133 -4.243,0l-2.633,-2.635c-1.168,0.646 -2.401,1.156 -3.679,1.526l0,3.724c-0.001,1.654 -1.346,3 -3.001,3zm-10.843,-10.502c0.179,0 0.36,0.048 0.521,0.146c1.416,0.866 2.949,1.502 4.557,1.891c0.449,0.109 0.765,0.51 0.765,0.972l0,4.493c0,0.552 0.449,1 1,1l4,0c0.551,0 1,-0.448 1,-1l0,-4.493c0,-0.462 0.316,-0.863 0.765,-0.972c1.606,-0.389 3.139,-1.023 4.556,-1.89c0.396,-0.241 0.902,-0.18 1.229,0.146l3.178,3.179c0.375,0.374 1.039,0.376 1.415,0l2.828,-2.829c0.39,-0.39 0.39,-1.024 0,-1.414l-3.179,-3.179c-0.327,-0.326 -0.387,-0.835 -0.146,-1.229c0.865,-1.414 1.5,-2.947 1.889,-4.556c0.108,-0.449 0.51,-0.766 0.972,-0.766l4.493,0c0.267,0 0.519,-0.104 0.708,-0.293c0.188,-0.186 0.292,-0.437 0.292,-0.705l0,-4c0,-0.552 -0.449,-1 -1,-1l-4.493,0c-0.462,0 -0.864,-0.316 -0.972,-0.766c-0.388,-1.607 -1.023,-3.14 -1.889,-4.556c-0.241,-0.394 -0.181,-0.901 0.146,-1.229l3.179,-3.179c0.186,-0.187 0.293,-0.444 0.293,-0.707s-0.107,-0.521 -0.293,-0.707l-2.829,-2.828c-0.378,-0.377 -1.037,-0.377 -1.415,0l-3.179,3.179c-0.326,0.328 -0.833,0.389 -1.229,0.146c-1.413,-0.864 -2.945,-1.5 -4.554,-1.889c-0.448,-0.107 -0.765,-0.508 -0.765,-0.97l0,-4.493c0,-0.552 -0.449,-1 -1,-1l-4,0c-0.551,0 -1,0.448 -1,1l0,4.493c0,0.462 -0.316,0.863 -0.765,0.972c-1.606,0.388 -3.139,1.023 -4.556,1.889c-0.395,0.241 -0.902,0.181 -1.228,-0.146l-3.179,-3.179c-0.378,-0.377 -1.037,-0.377 -1.415,0l-2.827,2.828c-0.39,0.39 -0.39,1.024 0,1.414l3.179,3.179c0.327,0.326 0.387,0.835 0.146,1.229c-0.866,1.416 -1.501,2.949 -1.889,4.555c-0.108,0.449 -0.51,0.766 -0.972,0.766l-4.494,0c-0.267,0 -0.519,0.104 -0.708,0.293c-0.188,0.187 -0.292,0.438 -0.292,0.706l0,4c0,0.552 0.449,1 1,1l4.493,0c0.462,0 0.864,0.316 0.972,0.766c0.389,1.608 1.024,3.141 1.889,4.555c0.241,0.394 0.181,0.901 -0.146,1.229l-3.179,3.18c-0.186,0.187 -0.293,0.444 -0.293,0.707s0.107,0.521 0.293,0.707l2.829,2.828c0.377,0.377 1.037,0.377 1.415,0l3.178,-3.179c0.192,-0.194 0.447,-0.294 0.706,-0.294z"/>
  <path fill="#fffff2" id="svg_5" d="m24,34c-5.514,0 -10,-4.486 -10,-10s4.486,-10 10,-10s10,4.486 10,10s-4.485,10 -10,10zm0,-18c-4.411,0 -8,3.589 -8,8s3.589,8 8,8s8,-3.589 8,-8s-3.588,-8 -8,-8z"/>
 </g>
</svg>