<?xml version="1.0" encoding="iso-8859-1"?>
<!-- Generator: Adobe Illustrator 19.0.0, SVG Export Plug-In . SVG Version: 6.00 Build 0)  -->
<svg version="1.1" id="Capa_1" xmlns="http://www.w3.org/2000/svg" xmlns:xlink="http://www.w3.org/1999/xlink" x="0px" y="0px"
	 viewBox="0 0 512.001 512.001" style="enable-background:new 0 0 512.001 512.001;" xml:space="preserve">
<path style="fill:#3BBC56;" d="M344.337,92.731c-3.6-13.601-23.354-73.098-94.513-78.492c-3.385-0.257-6.161,2.643-5.738,6.011
	c2.631,20.927,17.458,85.871,99.771,75.388C344.011,94.662,344.173,93.696,344.337,92.731z"/>
<path style="fill:#30AA44;" d="M264.691,20.25c-0.177-1.411,0.212-2.737,0.968-3.785c-4.973-1.043-10.245-1.802-15.835-2.225
	c-3.385-0.257-6.161,2.643-5.738,6.011c2.559,20.357,16.668,82.354,93.2,76.069C278.724,90.941,267.001,38.627,264.691,20.25z"/>
<path style="fill:#93603E;" d="M351.147,120.877c8.887-28.232,27.701-65.87,59.218-91.573c3.424-2.793,3.352-8.048-0.131-10.766
	l-21.07-16.441c-4.812-3.755-11.837-2.304-14.759,3.054c-9.989,18.325-31.638,63.352-35.186,115.62
	C343.191,120.51,347.182,120.539,351.147,120.877z"/>
<path style="fill:#7F573C;" d="M389.516,10.942c1.193-2.188,3.074-3.712,5.206-4.508l-5.557-4.336
	c-4.812-3.755-11.837-2.304-14.759,3.055c-9.989,18.325-31.638,63.352-35.186,115.62c3.971-0.262,7.963-0.233,11.928,0.106
	c1.568-4.982,3.452-10.261,5.654-15.711C363.702,62.256,380.92,26.711,389.516,10.942z"/>
<path style="fill:#30AA44;" d="M498.354,383.065c0,0-0.002-0.221-0.009-0.622c-0.018-3.223-0.171-6.419-0.461-9.582
	c-2.33-33.834-16.175-145.211-98.353-233.733c-26.783-28.851-78.066-28.851-104.849,0c-82.175,88.52-96.023,199.894-98.353,233.731
	c-0.317,3.454-0.471,7.096-0.471,10.206l0,0c0,71.21,67.716,128.936,151.248,128.936
	C430.638,512.001,498.354,454.274,498.354,383.065L498.354,383.065z"/>
<path style="fill:#269E35;" d="M336.276,372.861c-2.031-29.491-12.818-117.896-69.974-198.728
	c-57.154,80.83-67.943,169.232-69.974,198.726c-0.317,3.454-0.471,7.096-0.471,10.206c0,45.877,28.111,86.152,70.444,109.005
	c42.334-22.854,70.444-63.129,70.445-109.005l0,0c0,0-0.002-0.221-0.009-0.622C336.72,379.22,336.567,376.024,336.276,372.861z"/>
<path style="fill:#BAD362;" d="M316.142,383.065c0,0-0.002-0.221-0.009-0.622c-0.018-3.223-0.171-6.419-0.461-9.582
	c-2.33-33.834-16.175-145.211-98.353-233.733c-26.783-28.851-78.066-28.851-104.849,0c-82.175,88.52-96.023,199.894-98.353,233.731
	c-0.289,3.143-0.471,6.773-0.471,10.206l0,0c0,71.209,67.716,128.936,151.248,128.936S316.142,454.274,316.142,383.065
	L316.142,383.065z"/>
<path style="fill:#9AB748;" d="M34.251,383.065c0-3.434,0.182-7.063,0.471-10.206c2.33-33.837,16.178-145.211,98.353-233.731
	c11.027-11.878,26.209-18.854,42.122-20.951c-22.738-2.997-46.971,3.979-62.727,20.951c-82.175,88.52-96.023,199.894-98.353,233.731
	c-0.289,3.143-0.471,6.773-0.471,10.206c0,71.209,67.716,128.936,151.248,128.936c3.464,0,6.897-0.108,10.302-0.304
	C96.471,507.181,34.251,451.322,34.251,383.065z"/>
<circle style="fill:#93603E;" cx="164.89" cy="372.871" r="77.3"/>
<path style="fill:#7F573C;" d="M108.204,372.87c0-39.193,29.178-71.551,66.992-76.591c-3.373-0.449-6.807-0.704-10.302-0.704
	c-42.689,0-77.295,34.606-77.295,77.295s34.606,77.295,77.295,77.295c3.495,0,6.93-0.255,10.302-0.704
	C137.382,444.421,108.204,412.064,108.204,372.87z"/>
<g>
	<path style="fill:#6D4A31;" d="M192.502,360.716c2.03,0,4.028-0.824,5.461-2.267c0.27-0.262,0.517-0.554,0.745-0.861
		c0.439-0.591,0.796-1.244,1.046-1.937c0.135-0.376,0.247-0.765,0.321-1.148c0.103-0.505,0.154-1.01,0.154-1.514
		c0-0.505-0.051-1.01-0.154-1.515c-0.073-0.384-0.186-0.774-0.322-1.151c-0.25-0.692-0.606-1.344-1.045-1.934
		c-0.228-0.307-0.475-0.598-0.745-0.861c-1.432-1.442-3.431-2.266-5.461-2.266c-2.029,0-4.028,0.824-5.46,2.266
		c-0.27,0.263-0.518,0.554-0.746,0.862c-0.442,0.596-0.801,1.255-1.052,1.954c-0.133,0.37-0.242,0.754-0.314,1.131
		c-0.103,0.505-0.155,1.01-0.155,1.515s0.052,1.01,0.155,1.514c0.072,0.376,0.181,0.759,0.313,1.128c0.25,0.7,0.61,1.36,1.053,1.956
		c0.228,0.308,0.475,0.599,0.746,0.862C188.474,359.892,190.472,360.716,192.502,360.716z"/>
	<path style="fill:#6D4A31;" d="M192.502,401.069c2.03,0,4.028-0.825,5.461-2.267c0.27-0.262,0.517-0.554,0.745-0.861
		c0.439-0.591,0.796-1.244,1.046-1.937c0.135-0.376,0.247-0.765,0.321-1.148c0.103-0.505,0.154-1.01,0.154-1.514
		c0-0.505-0.051-1.01-0.154-1.515c-0.073-0.384-0.186-0.774-0.322-1.151c-0.25-0.692-0.606-1.344-1.045-1.934
		c-0.228-0.307-0.475-0.598-0.745-0.861c-1.432-1.442-3.431-2.266-5.461-2.266c-2.029,0-4.028,0.824-5.46,2.266
		c-0.27,0.263-0.518,0.554-0.746,0.862c-0.442,0.596-0.801,1.255-1.052,1.954c-0.133,0.37-0.242,0.754-0.314,1.131
		c-0.103,0.505-0.155,1.01-0.155,1.515s0.052,1.01,0.155,1.514c0.072,0.376,0.181,0.759,0.313,1.128c0.25,0.7,0.61,1.36,1.053,1.956
		c0.228,0.308,0.475,0.599,0.746,0.862C188.474,400.245,190.472,401.069,192.502,401.069z"/>
	<path style="fill:#6D4A31;" d="M215.349,380.884c2.028-0.095,3.986-1.011,5.349-2.519c0.258-0.275,0.491-0.577,0.704-0.895
		c0.411-0.611,0.737-1.28,0.955-1.983c0.118-0.381,0.211-0.776,0.267-1.162c0.08-0.509,0.107-1.016,0.084-1.52
		c-0.024-0.505-0.098-1.006-0.225-1.506c-0.091-0.38-0.222-0.765-0.375-1.135c-0.282-0.679-0.668-1.314-1.134-1.883
		c-0.242-0.296-0.502-0.576-0.785-0.825c-1.498-1.374-3.533-2.104-5.56-2.009s-3.985,1.011-5.349,2.518
		c-0.258,0.275-0.491,0.578-0.705,0.895c-0.414,0.616-0.742,1.291-0.959,2.001c-0.115,0.376-0.207,0.764-0.261,1.144
		c-0.079,0.509-0.108,1.016-0.084,1.52s0.099,1.006,0.225,1.505c0.089,0.373,0.216,0.75,0.366,1.112
		c0.283,0.687,0.672,1.33,1.143,1.905c0.242,0.297,0.503,0.576,0.785,0.826C211.287,380.248,213.322,380.979,215.349,380.884z"/>
</g>
<g>
</g>
<g>
</g>
<g>
</g>
<g>
</g>
<g>
</g>
<g>
</g>
<g>
</g>
<g>
</g>
<g>
</g>
<g>
</g>
<g>
</g>
<g>
</g>
<g>
</g>
<g>
</g>
<g>
</g>
</svg>
