<?xml version="1.0" encoding="iso-8859-1"?>
<!-- Generator: Adobe Illustrator 19.0.0, SVG Export Plug-In . SVG Version: 6.00 Build 0)  -->
<svg version="1.1" id="Capa_1" xmlns="http://www.w3.org/2000/svg" xmlns:xlink="http://www.w3.org/1999/xlink" x="0px" y="0px"
	 viewBox="0 0 512.002 512.002" style="enable-background:new 0 0 512.002 512.002;" xml:space="preserve">
<path style="fill:#3BBC56;" d="M307.734,66.266c-0.558,0.574-117.91,116.145-227.54-14.139c-1.089-1.294-1.279-3.218-0.223-4.795
	C83.476,42.103,199.296-30.054,307.734,66.266z"/>
<g>
	<path style="fill:#30AA44;" d="M89.086,41.049c-5.392,3.102-8.576,5.481-9.114,6.283c-1.056,1.577-0.866,3.501,0.223,4.795
		c109.63,130.284,226.982,14.713,227.54,14.139c-4.187-3.719-8.385-7.185-12.587-10.415
		C263.077,80.47,174.759,132.425,89.086,41.049z"/>
	<path style="fill:#30AA44;" d="M254.212,82.54c-59.227,0-113.829-17.926-116.621-18.856c-4.049-1.35-6.236-5.725-4.887-9.774
		c1.349-4.048,5.724-6.237,9.772-4.888l0,0c0.802,0.267,80.975,26.545,149.28,15.163c4.209-0.701,8.191,2.142,8.892,6.352
		c0.702,4.209-2.142,8.19-6.352,8.892C281.063,81.634,267.515,82.54,254.212,82.54z"/>
</g>
<path style="fill:#93603E;" d="M190.718,281.147c28.95-55.213,63.175-100.708,94.987-133.598c2.588-2.676,7.12-1.053,7.438,2.656
	c3.53,41.209,12.353,99.653,33.914,152.254c3.198-0.789,6.43-1.411,9.693-1.832c17.452-2.255,28.148-8.886,33.751-11.781
	c-27.649-65.292-33.115-142.637-34.076-177.659c-0.171-6.219,2.657-12.12,7.576-15.928c46.596-36.069,82.436-51.545,82.837-51.717
	c11.507-4.877,16.9-18.154,12.04-29.676c-4.861-11.533-18.152-16.944-29.692-12.079c-2.05,0.863-50.87,21.738-110.879,72.088
	c-45.472,38.152-104.932,102.196-150.964,192.469C167.556,278.462,176.793,276.701,190.718,281.147z"/>
<path style="fill:#7F573C;" d="M315.608,90.353c60.009-50.349,108.829-71.224,110.879-72.088c4.415-1.861,9.084-2.214,13.441-1.3
	c-0.272-1.042-0.619-2.077-1.05-3.099c-4.861-11.533-18.153-16.944-29.692-12.078c-2.05,0.863-50.87,21.738-110.879,72.088
	c-45.472,38.152-104.932,102.196-150.964,192.469c8.555,5.128,15.141,7.767,20.952,9.446
	C213.787,189.221,271.327,127.506,315.608,90.353z"/>
<g>
	<path style="fill:#EA473B;" d="M402.069,277.578c-31.151,2.731-35.342,17.117-65.319,20.99
		c-68.39,8.835-98.624,90.316-57.332,156.994c32.262,52.097,95.033,71.654,140.202,43.681c0.284-0.176,0.551-0.371,0.832-0.55
		c0.332-0.025,0.663-0.029,0.996-0.058c52.926-4.639,91.493-57.886,86.142-118.93C502.238,318.662,454.995,272.938,402.069,277.578z
		"/>
	<path style="fill:#EA473B;" d="M178.637,276.149c-10.8-1.804-21.188-5.689-30.52-11.416c-10.204-6.262-21.649-10.432-33.978-11.974
		c-52.718-6.594-101.62,37.352-109.225,98.156c-7.627,60.983,29.24,116.1,82.677,122.129
		c44.121,30.415,108.147,13.307,142.533-37.887C274.004,369.828,246.398,287.465,178.637,276.149z"/>
</g>
<g>
	<path style="fill:#DD332F;" d="M25.176,352.579c6.001-47.978,35.913-86.194,73.812-100.341
		c-46.637,2.588-87.204,43.752-94.074,98.676c-7.1,56.763,24.354,108.436,71.835,120.178
		C40.564,449.077,18.911,402.669,25.176,352.579z"/>
	<path style="fill:#DD332F;" d="M300.541,456.562c-37.85-61.121-18.456-134.082,34.86-157.797
		c-67.432,9.73-97.001,90.56-55.983,156.796c21.92,35.395,57.921,55.762,92.918,56.416
		C344.475,504.235,318.17,485.029,300.541,456.562z"/>
</g>
<g>
</g>
<g>
</g>
<g>
</g>
<g>
</g>
<g>
</g>
<g>
</g>
<g>
</g>
<g>
</g>
<g>
</g>
<g>
</g>
<g>
</g>
<g>
</g>
<g>
</g>
<g>
</g>
<g>
</g>
</svg>
