<?xml version="1.0" encoding="iso-8859-1"?>
<!-- Generator: Adobe Illustrator 19.0.0, SVG Export Plug-In . SVG Version: 6.00 Build 0)  -->
<svg version="1.1" id="Capa_1" xmlns="http://www.w3.org/2000/svg" xmlns:xlink="http://www.w3.org/1999/xlink" x="0px" y="0px"
	 viewBox="0 0 512.001 512.001" style="enable-background:new 0 0 512.001 512.001;" xml:space="preserve">
<path style="fill:#3BBC56;" d="M284.303,96.867c-1.746-14.844-13.594-80.38-87.622-96.73c-3.521-0.778-6.876,1.855-6.936,5.461
	c-0.373,22.404,5.476,92.929,93.617,94.254C283.67,98.849,283.985,97.856,284.303,96.867z"/>
<path style="fill:#30AA44;" d="M210.351,5.598c0.009-0.553,0.104-1.079,0.257-1.578c-4.382-1.49-9.014-2.798-13.928-3.883
	c-3.521-0.778-6.876,1.855-6.936,5.461c-0.373,22.404,5.476,92.929,93.617,94.254c0.172-0.561,0.35-1.114,0.527-1.67
	C214.92,87.26,210.009,26.161,210.351,5.598z"/>
<path style="fill:#93603E;" d="M364.737,28.726L345.045,8.274c-4.497-4.671-12.103-4.2-15.98,0.998
	c-13.02,17.459-40.217,59.555-52.111,112.561c4.573-0.13,8.975,0.614,13.158,2.164c13.718-27.801,37.274-62.306,73.148-83.928
	C367.28,37.645,367.993,32.107,364.737,28.726z"/>
<path style="fill:#7F573C;" d="M343.49,17.307c1.636-2.194,3.938-3.535,6.388-4.013l-4.834-5.02
	c-4.497-4.671-12.103-4.2-15.98,0.998c-13.02,17.459-40.217,59.555-52.111,112.561c4.573-0.13,8.975,0.614,13.158,2.164
	c1.69-3.425,3.531-6.952,5.524-10.544C308.872,68.248,331.846,32.921,343.49,17.307z"/>
<path style="fill:#F2D422;" d="M395.819,335.85c11.172-78.312-22.108-150.461-77.536-179.417c-2.639-1.379-4.38-3.956-4.809-6.902
	c-4.912-33.684-50.742-40.951-65.742-10.257c-1.566,3.205-4.474,5.584-7.966,6.316c-60.868,12.763-112.475,72.493-123.584,150.367
	c-11.077,77.648,21.547,149.237,76.131,178.671c3.44,1.855,5.728,5.237,6.453,9.077c6.184,32.724,50.669,38.839,65.434,8.968
	c1.625-3.287,4.6-5.731,8.187-6.488C333.189,473.354,384.719,413.658,395.819,335.85z"/>
<path style="fill:#E2C01A;" d="M219.662,484.11c-0.735-3.777-3.03-7.106-6.473-8.938c-54.638-29.065-87.425-99.51-76.54-175.804
	c10.916-76.516,62.36-135.1,123.175-147.496c3.489-0.711,6.39-3.042,7.948-6.189c6.677-13.484,19.543-19.476,32.169-19.019
	c-16.104-11.758-41.709-8.877-52.21,12.61c-1.566,3.205-4.474,5.584-7.966,6.316c-60.868,12.762-112.475,72.493-123.584,150.367
	c-11.077,77.648,21.547,149.237,76.131,178.671c3.44,1.855,5.728,5.236,6.453,9.077c4.246,22.467,26.544,32.389,44.885,26.736
	C232.183,507.011,222.364,497.993,219.662,484.11z"/>
<g>
	<path style="fill:#D6B013;" d="M317.732,346.579c1.765,1.002,3.911,1.272,5.868,0.725c0.365-0.095,0.723-0.226,1.073-0.381
		c0.674-0.297,1.307-0.689,1.866-1.168c0.303-0.26,0.593-0.543,0.846-0.84c0.339-0.388,0.633-0.802,0.882-1.241
		s0.454-0.903,0.614-1.394c0.126-0.37,0.221-0.765,0.289-1.16c0.124-0.725,0.136-1.468,0.046-2.198
		c-0.047-0.38-0.118-0.755-0.223-1.117c-0.533-1.962-1.865-3.665-3.63-4.668c-1.765-1.002-3.91-1.273-5.868-0.726
		c-0.365,0.095-0.724,0.226-1.074,0.381c-0.679,0.3-1.317,0.696-1.879,1.18c-0.298,0.257-0.583,0.536-0.832,0.828
		c-0.339,0.388-0.633,0.802-0.883,1.241c-0.249,0.439-0.454,0.904-0.613,1.393c-0.123,0.363-0.217,0.749-0.285,1.136
		c-0.128,0.732-0.141,1.483-0.051,2.221c0.047,0.38,0.118,0.756,0.223,1.118C314.636,343.873,315.967,345.577,317.732,346.579z"/>
	<path style="fill:#D6B013;" d="M293.687,386.837c1.765,1.002,3.911,1.272,5.868,0.725c0.365-0.095,0.723-0.226,1.073-0.381
		c0.674-0.297,1.307-0.689,1.866-1.168c0.303-0.26,0.593-0.543,0.846-0.84c0.339-0.388,0.633-0.802,0.882-1.241
		s0.454-0.903,0.614-1.394c0.126-0.37,0.221-0.765,0.289-1.16c0.124-0.725,0.136-1.468,0.046-2.198
		c-0.047-0.38-0.118-0.755-0.223-1.117c-0.533-1.962-1.865-3.665-3.63-4.668c-1.765-1.002-3.91-1.273-5.868-0.726
		c-0.365,0.095-0.724,0.226-1.074,0.381c-0.679,0.3-1.317,0.696-1.879,1.18c-0.298,0.257-0.583,0.536-0.832,0.828
		c-0.339,0.388-0.633,0.802-0.883,1.241c-0.249,0.439-0.454,0.904-0.613,1.393c-0.123,0.363-0.217,0.749-0.285,1.136
		c-0.128,0.732-0.141,1.483-0.051,2.221c0.047,0.38,0.118,0.756,0.223,1.118C290.591,384.131,291.922,385.835,293.687,386.837z"/>
	<path style="fill:#D6B013;" d="M270.985,427.859c1.765,1.002,3.911,1.272,5.868,0.725c0.365-0.095,0.723-0.226,1.073-0.381
		c0.674-0.297,1.307-0.689,1.866-1.168c0.303-0.26,0.593-0.543,0.846-0.84c0.339-0.388,0.633-0.802,0.882-1.241
		s0.454-0.903,0.614-1.394c0.126-0.37,0.221-0.765,0.289-1.16c0.124-0.725,0.136-1.468,0.046-2.198
		c-0.047-0.38-0.118-0.755-0.223-1.117c-0.533-1.962-1.865-3.665-3.63-4.668c-1.765-1.002-3.91-1.273-5.868-0.726
		c-0.365,0.095-0.724,0.226-1.074,0.381c-0.679,0.3-1.317,0.696-1.879,1.18c-0.298,0.257-0.583,0.536-0.832,0.828
		c-0.339,0.388-0.633,0.802-0.883,1.241c-0.249,0.439-0.454,0.904-0.613,1.393c-0.123,0.363-0.217,0.749-0.285,1.136
		c-0.128,0.732-0.141,1.483-0.051,2.221c0.047,0.38,0.118,0.756,0.223,1.118C267.889,425.152,269.22,426.856,270.985,427.859z"/>
	<path style="fill:#D6B013;" d="M335.395,383.894c1.81,0.919,3.966,1.089,5.896,0.451c0.36-0.112,0.712-0.26,1.055-0.43
		c0.659-0.328,1.273-0.749,1.81-1.253c0.291-0.274,0.567-0.57,0.806-0.879c0.32-0.403,0.595-0.83,0.823-1.28
		c0.229-0.45,0.411-0.924,0.548-1.421c0.108-0.375,0.185-0.775,0.234-1.172c0.09-0.73,0.068-1.473-0.056-2.198
		c-0.064-0.377-0.153-0.749-0.275-1.105c-0.624-1.935-2.033-3.574-3.843-4.493s-3.965-1.089-5.895-0.451
		c-0.36,0.112-0.712,0.26-1.055,0.431c-0.664,0.331-1.283,0.756-1.822,1.266c-0.286,0.27-0.557,0.562-0.792,0.866
		c-0.321,0.404-0.595,0.83-0.824,1.281c-0.228,0.45-0.411,0.924-0.547,1.42c-0.106,0.368-0.182,0.759-0.231,1.148
		c-0.093,0.737-0.072,1.488,0.053,2.221c0.064,0.378,0.153,0.75,0.275,1.106C332.176,381.335,333.585,382.976,335.395,383.894z"/>
	<path style="fill:#D6B013;" d="M314.629,425.929c1.81,0.919,3.966,1.089,5.896,0.451c0.36-0.112,0.712-0.26,1.054-0.43
		c0.659-0.328,1.273-0.749,1.81-1.253c0.291-0.274,0.567-0.57,0.806-0.879c0.32-0.403,0.595-0.83,0.823-1.28
		c0.229-0.45,0.411-0.924,0.548-1.421c0.108-0.375,0.185-0.775,0.234-1.172c0.09-0.73,0.068-1.473-0.056-2.198
		c-0.064-0.377-0.153-0.749-0.275-1.105c-0.624-1.935-2.033-3.574-3.843-4.493s-3.965-1.089-5.895-0.451
		c-0.36,0.112-0.712,0.26-1.055,0.431c-0.664,0.331-1.283,0.756-1.822,1.266c-0.286,0.27-0.557,0.562-0.792,0.866
		c-0.321,0.404-0.595,0.83-0.824,1.281c-0.228,0.45-0.411,0.924-0.547,1.42c-0.106,0.368-0.182,0.759-0.231,1.148
		c-0.093,0.737-0.072,1.488,0.053,2.221c0.064,0.378,0.153,0.75,0.275,1.106C311.411,423.37,312.82,425.01,314.629,425.929z"/>
</g>
<g>
</g>
<g>
</g>
<g>
</g>
<g>
</g>
<g>
</g>
<g>
</g>
<g>
</g>
<g>
</g>
<g>
</g>
<g>
</g>
<g>
</g>
<g>
</g>
<g>
</g>
<g>
</g>
<g>
</g>
</svg>
