<?xml version="1.0" encoding="iso-8859-1"?>
<!-- Generator: Adobe Illustrator 19.0.0, SVG Export Plug-In . SVG Version: 6.00 Build 0)  -->
<svg version="1.1" id="Capa_1" xmlns="http://www.w3.org/2000/svg" xmlns:xlink="http://www.w3.org/1999/xlink" x="0px" y="0px"
	 viewBox="0 0 512.001 512.001" style="enable-background:new 0 0 512.001 512.001;" xml:space="preserve">
<ellipse style="fill:#4C87C1;" cx="228.51" cy="324.761" rx="143.69" ry="187.24"/>
<path style="fill:#417EAF;" d="M105.003,324.757c0-98.99,58.95-180.027,133.598-186.777c-3.334-0.302-6.697-0.466-10.09-0.466
	c-79.357,0-143.688,83.832-143.688,187.243S149.154,512,228.511,512c3.393,0,6.756-0.165,10.09-0.466
	C163.953,504.784,105.003,423.747,105.003,324.757z"/>
<path style="fill:#3BBC56;" d="M272.562,110.584c-4.293-16.219-29.911-87.17-114.77-93.604c-4.036-0.306-7.347,3.152-6.843,7.168
	c3.137,24.956,22.879,102.403,121.04,89.902C272.172,112.887,272.365,111.734,272.562,110.584z"/>
<path style="fill:#30AA44;" d="M172.065,24.149c-0.246-1.959,0.42-3.782,1.631-5.103c-5.057-0.94-10.35-1.644-15.904-2.065
	c-4.036-0.306-7.348,3.152-6.843,7.168c3.032,24.115,21.575,97.237,111.392,90.856C190.645,109.464,174.842,46.242,172.065,24.149z"
	/>
<path style="fill:#93603E;" d="M282.019,140.628c10.824-33.105,30.718-75.912,67.221-105.682c4.083-3.331,3.998-9.598-0.156-12.839
	L323.958,2.501c-5.739-4.478-14.117-2.748-17.6,3.642c-11.811,21.667-34.863,74.109-39.38,135.698
	C271.92,141.105,276.938,140.695,282.019,140.628z"/>
<path style="fill:#7F573C;" d="M322.869,15.416c2.069-3.794,5.863-5.929,9.805-6.113l-8.716-6.802
	c-5.739-4.478-14.117-2.748-17.6,3.642c-11.811,21.667-34.863,74.109-39.38,135.698c4.942-0.737,9.96-1.147,15.041-1.214
	c1.161-3.551,2.433-7.218,3.812-10.964C293.314,77.544,312.457,34.518,322.869,15.416z"/>
<ellipse style="fill:#6996CC;" cx="283.49" cy="324.761" rx="143.69" ry="187.24"/>
<g>
</g>
<g>
</g>
<g>
</g>
<g>
</g>
<g>
</g>
<g>
</g>
<g>
</g>
<g>
</g>
<g>
</g>
<g>
</g>
<g>
</g>
<g>
</g>
<g>
</g>
<g>
</g>
<g>
</g>
</svg>
