<?xml version="1.0" encoding="iso-8859-1"?>
<!-- Generator: Adobe Illustrator 19.0.0, SVG Export Plug-In . SVG Version: 6.00 Build 0)  -->
<svg version="1.1" id="Capa_1" xmlns="http://www.w3.org/2000/svg" xmlns:xlink="http://www.w3.org/1999/xlink" x="0px" y="0px"
	 viewBox="0 0 512.001 512.001" style="enable-background:new 0 0 512.001 512.001;" xml:space="preserve">
<path style="fill:#C12121;" d="M332.358,301.599c-1.672,0-3.315,0.12-4.929,0.33c1.986-4.117,3.237-8.651,3.612-13.432
	c2.93,0.727,5.991,1.119,9.145,1.119c20.91,0,37.861-16.951,37.861-37.861s-16.951-37.861-37.861-37.861
	c-19.9,0-36.203,15.357-37.732,34.864c-4.96-1.231-10.102-1.456-15.241-0.624c16.28-25.062-1.722-58.451-31.765-58.451
	c-29.856,0-47.865,32.992-32.016,58.059c-5.336,0.37-10.366,1.843-14.865,4.196c0.086-21.155-17.022-38.045-37.856-38.045
	c-20.91,0-37.861,16.951-37.861,37.861s16.951,37.861,37.861,37.861c6.323,0,12.279-1.558,17.519-4.299
	c0,0.062-0.005,0.122-0.005,0.184c0,6.806,1.805,13.187,4.949,18.707c-4.279-1.677-8.932-2.608-13.806-2.608
	c-20.91,0-37.861,16.951-37.861,37.861c0,20.894,16.925,37.833,37.813,37.86c-20.87,26.334-2.174,65.539,31.707,65.539
	c1.671,0,3.314-0.113,4.932-0.31c4.039,18.076,20.167,31.591,39.461,31.591c19.333,0,35.488-13.569,39.486-31.7
	c1.892,0.272,3.825,0.419,5.792,0.419c22.337,0,40.445-18.108,40.445-40.445c0-9.483-3.272-18.197-8.738-25.094
	c20.888-0.026,37.812-16.966,37.812-37.86C370.218,318.55,353.267,301.599,332.358,301.599z"/>
<circle style="fill:#EA4E4E;" cx="218" cy="474.14" r="37.861"/>
<path style="fill:#DD4747;" d="M200.746,474.139c0-17.337,11.657-31.942,27.558-36.43c-3.277-0.925-6.73-1.431-10.302-1.431
	c-20.91,0-37.861,16.951-37.861,37.861S197.092,512,218.002,512c3.573,0,7.026-0.506,10.302-1.431
	C212.404,506.081,200.746,491.476,200.746,474.139z"/>
<circle style="fill:#F76A66;" cx="180.14" cy="425.61" r="37.861"/>
<path style="fill:#EA6060;" d="M162.886,425.612c0-17.337,11.657-31.942,27.558-36.43c-3.277-0.925-6.73-1.431-10.302-1.431
	c-20.91,0-37.861,16.951-37.861,37.861s16.951,37.861,37.861,37.861c3.573,0,7.026-0.506,10.302-1.431
	C174.543,457.554,162.886,442.949,162.886,425.612z"/>
<circle style="fill:#C12121;" cx="226.09" cy="285.5" r="37.861"/>
<path style="fill:#3BBC56;" d="M172.169,143.416c-26.379-7.153-53.255-2.514-74.919,11.506c-2.672,1.728-3.839,5.046-2.836,8.067
	c5.957,17.946,17.616,34.451,34.396,46.442c4.25-1.599,8.44-2.544,13.472-2.544c13.228,0,25.508,7.161,32.048,18.688l0.271,0.477
	l0.547,0.042c1.671,0.128,3.346,0.211,4.979,0.247l1.046,0.023l0.007-1.046c0.101-15.913,10.334-29.898,25.464-34.8l2.136-0.692
	C189.416,178.027,177.893,162.517,172.169,143.416z"/>
<g>
	<path style="fill:#30AA44;" d="M115.079,162.99c-1.003-3.021,0.164-6.338,2.836-8.067c12.005-7.769,25.61-12.651,39.844-14.249
		c-21.574-2.408-42.786,2.779-60.509,14.249c-2.672,1.728-3.839,5.046-2.836,8.067c5.957,17.946,17.616,34.451,34.396,46.442
		c4.25-1.599,8.44-2.544,13.472-2.544c1.385,0,2.757,0.096,4.116,0.25C131.264,195.377,120.664,179.817,115.079,162.99z"/>
	<path style="fill:#30AA44;" d="M251.251,149.103l0.012-0.211l-0.072-0.199c-11.093-30.662-40.104-53.014-75.255-53.46
		c-2.851-0.061-5.354,1.856-6.104,4.6c-9.544,34.949,4.858,71.645,36.359,90.828c3.81-1.236,7.499-1.939,11.81-1.939
		c10.712,0,20.322,4.234,28.55,13.545c2.727,0.035,4.653-0.908,6.106-3.402C250.775,182.167,250.304,165.615,251.251,149.103z"/>
</g>
<path style="fill:#269E35;" d="M190.675,99.833c0.292-1.069,0.856-2.006,1.597-2.756c-5.257-1.135-10.716-1.772-16.335-1.843
	c-2.851-0.061-5.354,1.856-6.104,4.6c-9.544,34.949,4.858,71.645,36.359,90.828c3.81-1.236,7.499-1.939,11.81-1.939
	c2.398,0,4.737,0.225,7.022,0.658C194.931,169.88,181.338,134.026,190.675,99.833z"/>
<path style="fill:#30AA44;" d="M414.751,154.923c-22.02-14.25-49.127-18.498-74.367-11.656l-0.553,0.15l-0.164,0.549
	c-2.684,8.951-6.915,17.298-12.576,24.81c-7.372,9.782-15.011,15.652-23.87,21.048l2.136,0.692
	c15.131,4.902,25.365,18.888,25.465,34.8l0.007,1.046l1.046-0.023c2.379-0.052,4.148-0.183,5.526-0.288
	c9.171-16.161,27.84-23.376,45.79-16.62c16.746-11.967,28.426-28.456,34.396-46.442
	C418.589,159.969,417.423,156.651,414.751,154.923z"/>
<path style="fill:#269E35;" d="M322.571,202.3c9.227-7.459,17.482-15.985,25.238-28.001c6.855-10.62,11.935-22.11,15.151-34.212
	c-7.569,0.121-15.153,1.167-22.576,3.179l-0.553,0.15l-0.164,0.549c-2.684,8.951-6.915,17.298-12.576,24.81
	c-7.372,9.782-15.011,15.652-23.87,21.048l2.136,0.692C312.295,192.763,318.198,196.924,322.571,202.3z"/>
<path style="fill:#3BBC56;" d="M342.167,99.833L342.167,99.833c-0.742-2.719-3.212-4.6-6.024-4.6c-0.027,0-0.054,0-0.08,0.001
	c-26.688,0.339-50.341,13.486-64.491,33.261c-0.93,1.297-6.537,18.302-10.338,36.599l-0.022,0.211
	c-0.794,2.591-4.089,22.037-4.089,33.856l0,0c1.143,1.96,5.856,3.275,8.373,3.069c9.919-11.84,25.224-16.462,40.311-11.568
	c8.942-5.446,16.506-12.123,22.93-20.646C343.941,149.837,348.837,124.256,342.167,99.833z"/>
<g>
	<path style="fill:#30AA44;" d="M279.393,165.304l0.022-0.211c3.801-18.297,9.408-35.302,10.338-36.599
		c11.587-16.193,29.548-27.936,50.327-31.847c-1.087-0.886-2.461-1.414-3.936-1.414c-0.027,0-0.054,0-0.08,0.001
		c-26.688,0.339-50.341,13.486-64.491,33.261c-0.929,1.297-6.537,18.301-10.338,36.599l-0.022,0.211
		c-0.794,2.591-4.089,22.037-4.089,33.856c1.143,1.96,5.856,3.275,8.373,3.069c2.911-3.475,6.295-6.308,9.991-8.481
		C276.189,182.17,278.712,167.529,279.393,165.304z"/>
	<path style="fill:#30AA44;" d="M303.06,189.878c0.916,0.227,1.832,0.486,2.748,0.783c0.923-0.562,1.823-1.146,2.717-1.736
		C306.671,189.104,304.847,189.422,303.06,189.878z"/>
</g>
<path style="fill:#93603E;" d="M255.863,225.552c0,0-3.533-126.721,81.231-188.131c3.871-2.804,4.149-8.474,0.596-11.671
	L311.709,2.367c-4.156-3.741-10.664-2.953-13.778,1.692C280.422,30.177,232.95,113.889,255.863,225.552z"/>
<path style="fill:#7F573C;" d="M268.726,139.869c7.92-62.202,33.881-106.968,45.849-124.82c1.612-2.405,4.135-3.766,6.769-4.009
	l-9.635-8.672c-4.156-3.74-10.664-2.952-13.778,1.692c-17.509,26.119-64.981,109.83-42.069,221.493
	C255.863,225.552,254.755,185.703,268.726,139.869z"/>
<circle style="fill:#D12828;" cx="370.22" cy="242.57" r="37.861"/>
<path style="fill:#C12121;" d="M352.962,242.574c0-17.337,11.657-31.942,27.558-36.43c-3.277-0.925-6.73-1.431-10.302-1.431
	c-20.91,0-37.861,16.951-37.861,37.861s16.951,37.861,37.861,37.861c3.573,0,7.026-0.506,10.302-1.431
	C364.62,274.515,352.962,259.911,352.962,242.574z"/>
<circle style="fill:#D12828;" cx="142.28" cy="242.57" r="37.861"/>
<path style="fill:#C12121;" d="M125.025,242.574c0-17.337,11.657-31.942,27.558-36.43c-3.277-0.925-6.73-1.431-10.302-1.431
	c-20.91,0-37.861,16.951-37.861,37.861s16.951,37.861,37.861,37.861c3.573,0,7.026-0.506,10.302-1.431
	C136.682,274.515,125.025,259.911,125.025,242.574z"/>
<circle style="fill:#DD332F;" cx="373.56" cy="313.07" r="37.861"/>
<path style="fill:#D12828;" d="M356.299,313.069c0-17.337,11.657-31.942,27.558-36.43c-3.277-0.925-6.73-1.431-10.302-1.431
	c-20.91,0-37.861,16.951-37.861,37.861s16.951,37.861,37.861,37.861c3.573,0,7.026-0.506,10.302-1.431
	C367.957,345.011,356.299,330.406,356.299,313.069z"/>
<circle style="fill:#EA4E4E;" cx="138.17" cy="313.07" r="37.861"/>
<path style="fill:#DD4747;" d="M120.915,313.069c0-17.337,11.657-31.942,27.558-36.43c-3.277-0.925-6.73-1.431-10.302-1.431
	c-20.91,0-37.861,16.951-37.861,37.861s16.951,37.861,37.861,37.861c3.573,0,7.026-0.506,10.302-1.431
	C132.572,345.011,120.915,330.406,120.915,313.069z"/>
<circle style="fill:#DD332F;" cx="293.65" cy="474.14" r="37.861"/>
<path style="fill:#D12828;" d="M276.395,474.139c0-17.337,11.657-31.942,27.558-36.43c-3.277-0.925-6.73-1.431-10.302-1.431
	c-20.91,0-37.861,16.951-37.861,37.861S272.741,512,293.651,512c3.573,0,7.026-0.506,10.302-1.431
	C288.052,506.081,276.395,491.476,276.395,474.139z"/>
<circle style="fill:#EA473B;" cx="255.79" cy="407" r="37.861"/>
<path style="fill:#DD332F;" d="M238.534,406.997c0-17.337,11.657-31.942,27.558-36.43c-3.277-0.925-6.73-1.431-10.302-1.431
	c-20.91,0-37.861,16.951-37.861,37.861s16.951,37.861,37.861,37.861c3.573,0,7.026-0.506,10.302-1.431
	C250.192,438.939,238.534,424.334,238.534,406.997z"/>
<circle style="fill:#EA4E4E;" cx="332.36" cy="425.61" r="37.861"/>
<path style="fill:#DD4747;" d="M315.102,425.612c0-17.337,11.657-31.942,27.558-36.43c-3.277-0.925-6.73-1.431-10.302-1.431
	c-20.91,0-37.861,16.951-37.861,37.861s16.951,37.861,37.861,37.861c3.573,0,7.026-0.506,10.302-1.431
	C326.759,457.554,315.102,442.949,315.102,425.612z"/>
<circle style="fill:#DD332F;" cx="155.92" cy="381.61" r="37.861"/>
<path style="fill:#D12828;" d="M138.661,381.609c0-17.337,11.657-31.942,27.558-36.43c-3.277-0.925-6.73-1.431-10.302-1.431
	c-20.91,0-37.861,16.951-37.861,37.861s16.951,37.861,37.861,37.861c3.573,0,7.026-0.506,10.302-1.431
	C150.318,413.551,138.661,398.947,138.661,381.609z"/>
<circle style="fill:#EA473B;" cx="355.81" cy="381.61" r="37.861"/>
<g>
	<path style="fill:#DD332F;" d="M338.553,381.609c0-17.337,11.657-31.942,27.558-36.43c-3.277-0.925-6.73-1.431-10.302-1.431
		c-20.91,0-37.861,16.951-37.861,37.861s16.951,37.861,37.861,37.861c3.573,0,7.026-0.506,10.302-1.431
		C350.21,413.551,338.553,398.947,338.553,381.609z"/>
	<circle style="fill:#DD332F;" cx="293.65" cy="224.71" r="37.861"/>
</g>
<path style="fill:#D12828;" d="M276.395,224.712c0-17.337,11.657-31.942,27.558-36.43c-3.277-0.925-6.73-1.431-10.302-1.431
	c-20.91,0-37.861,16.951-37.861,37.861s16.951,37.861,37.861,37.861c3.573,0,7.026-0.506,10.302-1.431
	C288.052,256.654,276.395,242.049,276.395,224.712z"/>
<circle style="fill:#EA473B;" cx="218" cy="224.71" r="37.861"/>
<g>
	<path style="fill:#DD332F;" d="M200.746,224.712c0-17.337,11.657-31.942,27.558-36.43c-3.277-0.925-6.73-1.431-10.302-1.431
		c-20.91,0-37.861,16.951-37.861,37.861s16.951,37.861,37.861,37.861c3.573,0,7.026-0.506,10.302-1.431
		C212.404,256.654,200.746,242.049,200.746,224.712z"/>
	<circle style="fill:#DD332F;" cx="192.77" cy="285.5" r="37.861"/>
</g>
<path style="fill:#D12828;" d="M175.516,285.501c0-17.337,11.657-31.942,27.558-36.43c-3.277-0.925-6.73-1.431-10.302-1.431
	c-20.91,0-37.861,16.951-37.861,37.861s16.951,37.861,37.861,37.861c3.573,0,7.026-0.506,10.302-1.431
	C187.173,317.442,175.516,302.838,175.516,285.501z"/>
<circle style="fill:#EA4E4E;" cx="318.97" cy="285.5" r="37.861"/>
<path style="fill:#DD4747;" d="M301.713,285.501c0-17.337,11.657-31.942,27.558-36.43c-3.277-0.925-6.73-1.431-10.302-1.431
	c-20.91,0-37.861,16.951-37.861,37.861s16.951,37.861,37.861,37.861c3.573,0,7.026-0.506,10.302-1.431
	C313.37,317.442,301.713,302.838,301.713,285.501z"/>
<circle style="fill:#EA4E4E;" cx="218" cy="350.46" r="37.861"/>
<path style="fill:#DD4747;" d="M200.746,350.456c0-17.337,11.657-31.942,27.558-36.43c-3.277-0.925-6.73-1.431-10.302-1.431
	c-20.91,0-37.861,16.951-37.861,37.861s16.951,37.861,37.861,37.861c3.573,0,7.026-0.506,10.302-1.431
	C212.404,382.398,200.746,367.793,200.746,350.456z"/>
<circle style="fill:#F76A66;" cx="255.86" cy="285.5" r="37.861"/>
<path style="fill:#EA6060;" d="M238.607,285.501c0-17.337,11.657-31.942,27.558-36.43c-3.277-0.925-6.73-1.431-10.302-1.431
	c-20.91,0-37.861,16.951-37.861,37.861s16.951,37.861,37.861,37.861c3.573,0,7.026-0.506,10.302-1.431
	C250.264,317.442,238.607,302.838,238.607,285.501z"/>
<circle style="fill:#F76A66;" cx="294.5" cy="349.89" r="37.861"/>
<path style="fill:#EA6060;" d="M277.241,349.891c0-17.337,11.657-31.942,27.558-36.43c-3.277-0.925-6.73-1.431-10.302-1.431
	c-20.91,0-37.861,16.951-37.861,37.861s16.951,37.861,37.861,37.861c3.573,0,7.026-0.506,10.302-1.431
	C288.898,381.833,277.241,367.228,277.241,349.891z"/>
<g>
</g>
<g>
</g>
<g>
</g>
<g>
</g>
<g>
</g>
<g>
</g>
<g>
</g>
<g>
</g>
<g>
</g>
<g>
</g>
<g>
</g>
<g>
</g>
<g>
</g>
<g>
</g>
<g>
</g>
</svg>
