<?xml version="1.0" encoding="iso-8859-1"?>
<!-- Generator: Adobe Illustrator 19.0.0, SVG Export Plug-In . SVG Version: 6.00 Build 0)  -->
<svg version="1.1" id="Capa_1" xmlns="http://www.w3.org/2000/svg" xmlns:xlink="http://www.w3.org/1999/xlink" x="0px" y="0px"
	 viewBox="0 0 512 512" style="enable-background:new 0 0 512 512;" xml:space="preserve">
<path style="fill:#EA473B;" d="M260.43,76.35c-2.52-2.279-6.34-2.279-8.86,0C140.525,176.794,2.027,305.15,0.538,308.635
	c0.253,0.605,0.571,1.191,1.012,1.719c135.647,162.447,373.069,162.667,508.9,0c0.441-0.528,0.759-1.114,1.012-1.719
	C508.821,302.447,287.199,100.563,260.43,76.35z"/>
<path style="fill:#DD332F;" d="M260.43,76.35c-2.52-2.279-6.34-2.279-8.86,0C140.525,176.794,2.027,305.15,0.538,308.635
	c0.253,0.605,0.571,1.191,1.012,1.719c3.815,4.569,7.715,9.002,11.686,13.314L270.522,85.507
	C266.034,81.428,262.593,78.306,260.43,76.35z"/>
<path style="fill:#F76A66;" d="M510.45,310.354c0.441-0.528,0.759-1.114,1.012-1.719c-0.795-1.863,1.69,0.427-52.029-49.642
	C408.598,317.127,336.269,353.468,256,353.468s-152.598-36.341-203.433-94.475c-55.486,51.685-51.444,48.272-52.029,49.642
	c0.253,0.605,0.571,1.191,1.012,1.719C137.197,472.801,374.619,473.021,510.45,310.354z"/>
<path style="fill:#EA6060;" d="M52.567,258.993c-55.486,51.685-51.444,48.272-52.029,49.642c0.253,0.605,0.571,1.191,1.012,1.719
	c3.815,4.569,7.715,9.002,11.686,13.314l53.54-49.561C61.876,269.249,57.131,264.213,52.567,258.993z"/>
<path style="fill:#3BBC56;" d="M509.961,306.457c-9.122-8.634-18.43-17.415-30.968-29.17
	c-120.724,137.856-325.058,138.089-445.986,0c-11.893,11.15-21.221,19.944-30.968,29.17c-2.511,2.395-2.722,6.307-0.529,8.99
	c3.229,3.868,6.486,7.621,10.205,11.702c137.521,150.968,366.632,146.618,498.775-11.702
	C512.683,312.764,512.471,308.852,509.961,306.457z"/>
<path style="fill:#30AA44;" d="M33.007,277.287c-11.893,11.15-21.221,19.944-30.968,29.17c-2.511,2.395-2.722,6.307-0.529,8.99
	c2.925,3.505,5.892,6.927,9.186,10.572l36.391-33.686C42.285,287.507,37.58,282.508,33.007,277.287z"/>
<path style="fill:#FFA92C;" d="M319.42,201.254c0,8.047-6.523,14.571-14.571,14.571c-8.047,0-14.571-6.523-14.571-14.571
	s6.523-22.648,14.571-22.648S319.42,193.207,319.42,201.254z"/>
<path style="fill:#F7991E;" d="M307.601,201.254c0-4.803,2.325-11.939,5.91-16.914c-2.421-3.36-5.417-5.734-8.661-5.734
	c-8.047,0-14.571,14.601-14.571,22.648s6.524,14.571,14.571,14.571c3.248,0,6.238-1.076,8.661-2.873
	C309.931,210.297,307.601,206.053,307.601,201.254z"/>
<path style="fill:#FFA92C;" d="M221.721,201.254c0,8.047-6.523,14.571-14.571,14.571c-8.047,0-14.571-6.523-14.571-14.571
	s6.523-22.648,14.571-22.648S221.721,193.207,221.721,201.254z"/>
<path style="fill:#F7991E;" d="M209.902,201.254c0-4.803,2.325-11.939,5.91-16.914c-2.421-3.36-5.417-5.734-8.661-5.734
	c-8.047,0-14.571,14.601-14.571,22.648s6.524,14.571,14.571,14.571c3.248,0,6.238-1.076,8.661-2.873
	C212.232,210.297,209.902,206.053,209.902,201.254z"/>
<path style="fill:#FFA92C;" d="M270.571,264.417c0,8.047-6.523,14.571-14.571,14.571c-8.047,0-14.571-6.523-14.571-14.571
	c0-8.047,6.523-22.648,14.571-22.648C264.047,241.768,270.571,256.369,270.571,264.417z"/>
<path style="fill:#F7991E;" d="M258.751,264.417c0-4.803,2.325-11.939,5.91-16.914c-2.422-3.36-5.417-5.734-8.661-5.734
	c-8.047,0-14.571,14.601-14.571,22.648s6.524,14.571,14.571,14.571c3.248,0,6.238-1.076,8.661-2.873
	C261.081,273.459,258.751,269.215,258.751,264.417z"/>
<path style="fill:#FFA92C;" d="M369.974,264.417c0,8.047-6.523,14.571-14.571,14.571s-14.571-6.523-14.571-14.571
	c0-8.047,6.523-22.648,14.571-22.648S369.974,256.369,369.974,264.417z"/>
<path style="fill:#F7991E;" d="M358.155,264.417c0-4.803,2.325-11.939,5.91-16.914c-2.422-3.36-5.417-5.734-8.661-5.734
	c-8.047,0-14.571,14.601-14.571,22.648s6.524,14.571,14.571,14.571c3.248,0,6.238-1.076,8.661-2.873
	C360.485,273.459,358.155,269.215,358.155,264.417z"/>
<path style="fill:#FFA92C;" d="M171.167,264.417c0,8.047-6.523,14.571-14.571,14.571c-8.047,0-14.571-6.523-14.571-14.571
	c0-8.047,6.523-22.648,14.571-22.648C164.643,241.768,171.167,256.369,171.167,264.417z"/>
<path style="fill:#F7991E;" d="M159.347,264.417c0-4.803,2.325-11.939,5.91-16.914c-2.421-3.36-5.417-5.734-8.661-5.734
	c-8.047,0-14.571,14.601-14.571,22.648s6.524,14.571,14.571,14.571c3.248,0,6.238-1.076,8.661-2.873
	C161.678,273.459,159.347,269.215,159.347,264.417z"/>
<g>
</g>
<g>
</g>
<g>
</g>
<g>
</g>
<g>
</g>
<g>
</g>
<g>
</g>
<g>
</g>
<g>
</g>
<g>
</g>
<g>
</g>
<g>
</g>
<g>
</g>
<g>
</g>
<g>
</g>
</svg>
